<svg xmlns="http://www.w3.org/2000/svg" width="38" height="38" viewBox="0 0 38 38"><defs><clipPath id="470ka"><path d="M19 38c10.493 0 19-8.507 19-19S29.493 0 19 0 0 8.507 0 19s8.507 19 19 19z"/></clipPath></defs><g><g><g><path fill="#d8d8d8" d="M19 38c10.493 0 19-8.507 19-19S29.493 0 19 0 0 8.507 0 19s8.507 19 19 19z"/></g><g clip-path="url(#470ka)"><g><path fill="#fff" d="M18.972 23.884c-1.211 0-2.352-.347-3.366-.948-2.442-1.448-4.123-4.411-4.123-7.832 0-4.841 3.36-8.78 7.49-8.78 4.13 0 7.488 3.939 7.488 8.78 0 3.474-1.734 6.473-4.237 7.896-.986.56-2.086.884-3.252.884zm0-24.844C8.494-.96 0 7.892 0 18.81c0 4.759 1.614 9.125 4.301 12.536.415-3.46 3.73-6.385 8.38-7.77 1.698 1.648 3.892 2.649 6.291 2.649 2.342 0 4.493-.95 6.175-2.53 4.69 1.506 7.934 4.603 8.04 8.203 2.958-3.487 4.757-8.067 4.757-13.087C37.944 7.89 29.45-.96 18.972-.96z"/></g></g></g></g></svg>